<?xml version="1.0" encoding="UTF-8" standalone="no"?>
<!DOCTYPE svg PUBLIC "-//W3C//DTD SVG 1.1//EN"
 "http://www.w3.org/Graphics/SVG/1.1/DTD/svg11.dtd">
<!-- Generated by graphviz version 2.43.0 (0)
 -->
<!-- Title: %3 Pages: 1 -->
<svg width="196pt" height="244pt"
 viewBox="0.00 0.00 196.00 244.00" xmlns="http://www.w3.org/2000/svg" xmlns:xlink="http://www.w3.org/1999/xlink">
<g id="graph0" class="graph" transform="scale(1 1) rotate(0) translate(4 240)">
<title>%3</title>
<polygon fill="white" stroke="transparent" points="-4,4 -4,-240 192,-240 192,4 -4,4"/>
<!-- 1 -->
<g id="node1" class="node">
<title>1</title>
<polygon fill="#ff0000" stroke="#ff0000" points="177,-52 116,-52 116,0 177,0 177,-52"/>
<text text-anchor="middle" x="146.5" y="-40" font-family="Arial" font-size="10.00" fill="#ffffff">sqrd_dist</text>
<text text-anchor="middle" x="146.5" y="-29" font-family="Arial" font-size="10.00" fill="#ffffff">100.00%</text>
<text text-anchor="middle" x="146.5" y="-18" font-family="Arial" font-size="10.00" fill="#ffffff">(100.00%)</text>
<text text-anchor="middle" x="146.5" y="-7" font-family="Arial" font-size="10.00" fill="#ffffff">1378×</text>
</g>
<!-- 2 -->
<g id="node2" class="node">
<title>2</title>
<polygon fill="#ff0000" stroke="#ff0000" points="61,-144 0,-144 0,-92 61,-92 61,-144"/>
<text text-anchor="middle" x="30.5" y="-132" font-family="Arial" font-size="10.00" fill="#ffffff">dfs</text>
<text text-anchor="middle" x="30.5" y="-121" font-family="Arial" font-size="10.00" fill="#ffffff">100.00%</text>
<text text-anchor="middle" x="30.5" y="-110" font-family="Arial" font-size="10.00" fill="#ffffff">(100.00%)</text>
<text text-anchor="middle" x="30.5" y="-99" font-family="Arial" font-size="10.00" fill="#ffffff">52×</text>
</g>
<!-- 2&#45;&gt;2 -->
<g id="edge1" class="edge">
<title>2&#45;&gt;2</title>
<path fill="none" stroke="#ff0000" stroke-width="4" d="M61.3,-126.02C66.45,-124.89 70,-122.22 70,-118 70,-117.21 69.88,-116.47 69.64,-115.79"/>
<polygon fill="#ff0000" stroke="#ff0000" stroke-width="4" points="71.51,-112.83 61.3,-109.98 67.51,-118.57 71.51,-112.83"/>
<text text-anchor="middle" x="78.5" y="-115.5" font-family="Arial" font-size="10.00" fill="#ff0000">48×</text>
</g>
<!-- 3 -->
<g id="node3" class="node">
<title>3</title>
<polygon fill="#ff0000" stroke="#ff0000" points="118,-236 57,-236 57,-184 118,-184 118,-236"/>
<text text-anchor="middle" x="87.5" y="-224" font-family="Arial" font-size="10.00" fill="#ffffff">dbscan</text>
<text text-anchor="middle" x="87.5" y="-213" font-family="Arial" font-size="10.00" fill="#ffffff">100.00%</text>
<text text-anchor="middle" x="87.5" y="-202" font-family="Arial" font-size="10.00" fill="#ffffff">(100.00%)</text>
<text text-anchor="middle" x="87.5" y="-191" font-family="Arial" font-size="10.00" fill="#ffffff">1×</text>
</g>
<!-- 3&#45;&gt;2 -->
<g id="edge2" class="edge">
<title>3&#45;&gt;2</title>
<path fill="none" stroke="#ff0000" stroke-width="4" d="M71.62,-183.93C65.56,-174.36 58.54,-163.27 52.04,-153"/>
<polygon fill="#ff0000" stroke="#ff0000" stroke-width="4" points="54.8,-150.82 46.49,-144.25 48.88,-154.57 54.8,-150.82"/>
<text text-anchor="middle" x="86" y="-167" font-family="Arial" font-size="10.00" fill="#ff0000">100.00%</text>
<text text-anchor="middle" x="86" y="-156" font-family="Arial" font-size="10.00" fill="#ff0000">4×</text>
</g>
<!-- 4 -->
<g id="node4" class="node">
<title>4</title>
<polygon fill="#ff0000" stroke="#ff0000" points="188,-144 105,-144 105,-92 188,-92 188,-144"/>
<text text-anchor="middle" x="146.5" y="-132" font-family="Arial" font-size="10.00" fill="#ffffff">get_neighbours</text>
<text text-anchor="middle" x="146.5" y="-121" font-family="Arial" font-size="10.00" fill="#ffffff">100.00%</text>
<text text-anchor="middle" x="146.5" y="-110" font-family="Arial" font-size="10.00" fill="#ffffff">(100.00%)</text>
<text text-anchor="middle" x="146.5" y="-99" font-family="Arial" font-size="10.00" fill="#ffffff">1×</text>
</g>
<!-- 3&#45;&gt;4 -->
<g id="edge3" class="edge">
<title>3&#45;&gt;4</title>
<path fill="none" stroke="#ff0000" stroke-width="4" d="M103.93,-183.93C110.27,-174.26 117.62,-163.05 124.41,-152.69"/>
<polygon fill="#ff0000" stroke="#ff0000" stroke-width="4" points="127.39,-154.53 129.95,-144.25 121.54,-150.69 127.39,-154.53"/>
<text text-anchor="middle" x="144" y="-167" font-family="Arial" font-size="10.00" fill="#ff0000">100.00%</text>
<text text-anchor="middle" x="144" y="-156" font-family="Arial" font-size="10.00" fill="#ff0000">1×</text>
</g>
<!-- 4&#45;&gt;1 -->
<g id="edge4" class="edge">
<title>4&#45;&gt;1</title>
<path fill="none" stroke="#ff0000" stroke-width="4" d="M146.5,-91.93C146.5,-82.74 146.5,-72.17 146.5,-62.25"/>
<polygon fill="#ff0000" stroke="#ff0000" stroke-width="4" points="150,-62.25 146.5,-52.25 143,-62.25 150,-62.25"/>
<text text-anchor="middle" x="166" y="-75" font-family="Arial" font-size="10.00" fill="#ff0000">100.00%</text>
<text text-anchor="middle" x="166" y="-64" font-family="Arial" font-size="10.00" fill="#ff0000">1378×</text>
</g>
</g>
</svg>
